<svg width="30" height="23" viewBox="0 0 30 23" fill="none" xmlns="http://www.w3.org/2000/svg">
<path d="M22.8496 10.5289C24.7096 10.2676 26.1416 8.67293 26.1456 6.74093C26.1456 4.83693 24.7576 3.25826 22.9376 2.95959" stroke="white" stroke-width="1.5" stroke-linecap="round" stroke-linejoin="round"/>
<path d="M25.3047 15.0004C27.106 15.2697 28.3634 15.9004 28.3634 17.2004C28.3634 18.095 27.7714 18.6764 26.814 19.0417" stroke="white" stroke-width="1.5" stroke-linecap="round" stroke-linejoin="round"/>
<path fill-rule="evenodd" clip-rule="evenodd" d="M14.8487 15.5518C10.5633 15.5518 6.90332 16.2011 6.90332 18.7944C6.90332 21.3864 10.5407 22.0544 14.8487 22.0544C19.134 22.0544 22.7927 21.4118 22.7927 18.8171C22.7927 16.2224 19.1567 15.5518 14.8487 15.5518Z" stroke="white" stroke-width="1.5" stroke-linecap="round" stroke-linejoin="round"/>
<path fill-rule="evenodd" clip-rule="evenodd" d="M14.8489 11.8505C17.6609 11.8505 19.9409 9.57184 19.9409 6.7585C19.9409 3.9465 17.6609 1.6665 14.8489 1.6665C12.0369 1.6665 9.75687 3.9465 9.75687 6.7585C9.74621 9.56117 12.0089 11.8412 14.8115 11.8505H14.8489Z" stroke="white" stroke-width="1.5" stroke-linecap="round" stroke-linejoin="round"/>
<path d="M6.8458 10.5289C4.98447 10.2676 3.5538 8.67293 3.5498 6.74093C3.5498 4.83693 4.9378 3.25826 6.7578 2.95959" stroke="white" stroke-width="1.5" stroke-linecap="round" stroke-linejoin="round"/>
<path d="M4.39167 15.0004C2.59034 15.2697 1.33301 15.9004 1.33301 17.2004C1.33301 18.095 1.92501 18.6764 2.88234 19.0417" stroke="white" stroke-width="1.5" stroke-linecap="round" stroke-linejoin="round"/>
</svg>
