<svg width="28" height="27" viewBox="0 0 28 27" fill="none" xmlns="http://www.w3.org/2000/svg">
<path fill-rule="evenodd" clip-rule="evenodd" d="M22.2537 5.10693C24.507 5.10693 26.3203 6.9336 26.3203 9.18693V13.7736C23.0403 15.6936 18.707 16.8536 13.987 16.8536C9.26699 16.8536 4.94699 15.6936 1.66699 13.7736V9.1736C1.66699 6.92027 3.49366 5.10693 5.74699 5.10693H22.2537Z" stroke="#73FFF2" stroke-width="1.5" stroke-linecap="round" stroke-linejoin="round"/>
<path d="M18.6605 5.10105V4.61305C18.6605 2.98638 17.3405 1.66638 15.7138 1.66638H12.2738C10.6471 1.66638 9.32715 2.98638 9.32715 4.61305V5.10105" stroke="#73FFF2" stroke-width="1.5" stroke-linecap="round" stroke-linejoin="round"/>
<path d="M1.69922 18.644L1.95122 21.9893C2.12189 24.244 4.00055 25.9866 6.26055 25.9866H21.7259C23.9859 25.9866 25.8646 24.244 26.0352 21.9893L26.2872 18.644" stroke="#73FFF2" stroke-width="1.5" stroke-linecap="round" stroke-linejoin="round"/>
</svg>
