<svg width="28" height="22" viewBox="0 0 28 22" fill="none" xmlns="http://www.w3.org/2000/svg">
<path d="M24.2919 5.08197C25.34 4.2239 25.8405 3.29156 26.5993 2.20177C26.5998 2.20103 26.5992 2.20004 26.5983 2.2002C25.3334 2.42856 24.2628 2.42856 22.9782 2.42856C21.9957 1.42493 20.5981 0.799805 19.048 0.799805C16.0741 0.799805 13.6628 3.10864 13.6628 5.95462C13.6628 6.35826 13.7104 6.75249 13.8022 7.12947C9.37774 6.91668 5.44877 4.90735 2.79388 1.84687C2.74927 1.79545 2.66741 1.80194 2.63355 1.86098C2.21308 2.59405 1.97558 3.43701 1.97558 4.33371C1.97558 6.11002 2.91356 7.67881 4.3399 8.60496C4.34842 8.61049 4.34504 8.62387 4.33488 8.62357C3.49454 8.59885 1.77699 8.62135 0.87909 8.62434C0.802157 8.6246 0.75431 8.70794 0.793752 8.77399C2.05697 10.8895 3.9375 12.4138 6.21525 13.0876C6.225 13.0904 6.22537 13.1043 6.21553 13.1068C5.117 13.3918 3.27287 13.9581 2.10027 14.2351C2.02519 14.2529 1.99752 14.3446 2.05275 14.3985C3.41915 15.7315 6.53531 16.7158 8.81807 16.7632C8.82759 16.7634 8.83121 16.7755 8.82358 16.7812C6.98519 18.1522 4.66737 18.8969 2.15933 18.9673C1.83646 18.9182 1.54607 18.9252 1.25764 18.9188C1.15465 18.9165 1.10593 19.0547 1.1929 19.1099C3.07776 20.3063 6.25638 21.2165 9.12906 21.2165C19.0349 21.2165 24.8349 13.3493 24.4496 6.54677C24.3825 5.36123 24.3538 5.4743 24.2919 5.08197Z" stroke="white" stroke-width="1.5"/>
</svg>
